<svg width="168" height="44" viewBox="0 0 168 44" fill="none" xmlns="http://www.w3.org/2000/svg">
<path d="M0 22C0 12.6177 0 7.92655 2.47976 4.69486C3.11817 3.86288 3.86288 3.11817 4.69486 2.47976C7.92655 0 12.6177 0 22 0H146C155.382 0 160.073 0 163.305 2.47976C164.137 3.11817 164.882 3.86288 165.52 4.69486C168 7.92655 168 12.6177 168 22C168 31.3823 168 36.0735 165.52 39.3051C164.882 40.1371 164.137 40.8818 163.305 41.5202C160.073 44 155.382 44 146 44H22C12.6177 44 7.92655 44 4.69486 41.5202C3.86288 40.8818 3.11817 40.1371 2.47976 39.3051C0 36.0735 0 31.3823 0 22Z" fill="black"/>
<rect x="29" y="10" width="24" height="24" rx="12" fill="#FC3F1D"/>
<path d="M42.6911 29.212H45.1981V14.812H41.5515C37.8841 14.812 35.9572 16.6975 35.9572 19.4739C35.9572 21.6909 37.0139 22.9962 38.8994 24.3429L35.6257 29.212H38.34L41.9866 23.7628L40.7227 22.9133C39.1895 21.8773 38.4436 21.0693 38.4436 19.3288C38.4436 17.7956 39.521 16.7596 41.5722 16.7596H42.6911V29.212Z" fill="white"/>
<path d="M66.2066 19.128C66.2066 18.52 66.3133 17.992 66.5266 17.544C66.7399 17.0853 67.0386 16.712 67.4226 16.424C67.8066 16.1253 68.2653 15.9013 68.7986 15.752C69.3426 15.6027 69.9453 15.528 70.6066 15.528H74.3346V27H72.3826V22.584H70.6066L67.6786 27H65.4226L68.6546 22.296C67.8226 22.0933 67.2039 21.7253 66.7986 21.192C66.4039 20.648 66.2066 19.96 66.2066 19.128ZM72.3826 20.968V17.208H70.5906C69.8653 17.208 69.2839 17.352 68.8466 17.64C68.4199 17.9173 68.2066 18.3973 68.2066 19.08C68.2066 19.752 68.3986 20.2373 68.7826 20.536C69.1666 20.824 69.7106 20.968 70.4146 20.968H72.3826Z" fill="white"/>
<path d="M81.9546 23.496H78.4506V27H76.5946V18.696H78.4506V21.992H81.9546V18.696H83.8106V27H81.9546V23.496Z" fill="white"/>
<path d="M85.6675 25.496C85.9128 25.2827 86.1048 24.9893 86.2435 24.616C86.3928 24.2427 86.5101 23.7787 86.5955 23.224C86.6808 22.6587 86.7448 22.0027 86.7875 21.256C86.8302 20.5093 86.8675 19.656 86.8995 18.696H92.9795V25.496H94.2275V29.368H92.6115L92.4675 27H86.7395L86.5955 29.368H84.9635V25.496H85.6675ZM91.1235 25.496V20.2H88.4995C88.4461 21.512 88.3555 22.6 88.2275 23.464C88.1101 24.3173 87.9128 24.9947 87.6355 25.496H91.1235Z" fill="white"/>
<path d="M102.382 26.392C102.265 26.4667 102.121 26.552 101.95 26.648C101.78 26.7333 101.577 26.8133 101.342 26.888C101.108 26.9627 100.836 27.0267 100.526 27.08C100.217 27.1333 99.865 27.16 99.4704 27.16C97.945 27.16 96.8037 26.7813 96.0464 26.024C95.2997 25.2667 94.9264 24.2053 94.9264 22.84C94.9264 22.168 95.0277 21.5653 95.2304 21.032C95.433 20.4987 95.7157 20.0507 96.0784 19.688C96.441 19.3147 96.873 19.032 97.3744 18.84C97.8757 18.6373 98.425 18.536 99.0224 18.536C99.641 18.536 100.196 18.6373 100.686 18.84C101.188 19.0427 101.598 19.3467 101.918 19.752C102.238 20.1573 102.457 20.6587 102.574 21.256C102.702 21.8533 102.708 22.552 102.59 23.352H96.8464C96.921 24.1093 97.1717 24.68 97.5984 25.064C98.025 25.4373 98.6917 25.624 99.5984 25.624C100.26 25.624 100.809 25.544 101.246 25.384C101.694 25.2133 102.073 25.0373 102.382 24.856V26.392ZM99.0224 20.008C98.4784 20.008 98.0197 20.1733 97.6464 20.504C97.273 20.8347 97.0277 21.3253 96.9104 21.976H100.814C100.836 21.304 100.686 20.808 100.366 20.488C100.046 20.168 99.5984 20.008 99.0224 20.008Z" fill="white"/>
<path d="M106.889 23.624H106.169V27H104.313V18.696H106.169V22.12H106.953L109.593 18.696H111.545L108.409 22.696L111.673 27H109.481L106.889 23.624Z" fill="white"/>
<path d="M116.34 27.16C115.668 27.16 115.066 27.064 114.532 26.872C113.999 26.6693 113.546 26.3867 113.172 26.024C112.799 25.6507 112.511 25.1973 112.308 24.664C112.106 24.1307 112.004 23.5227 112.004 22.84C112.004 22.168 112.106 21.5653 112.308 21.032C112.511 20.4987 112.799 20.0507 113.172 19.688C113.546 19.3147 114.004 19.032 114.548 18.84C115.092 18.6373 115.7 18.536 116.372 18.536C116.948 18.536 117.45 18.6 117.876 18.728C118.314 18.856 118.66 19.016 118.916 19.208V20.744C118.586 20.5307 118.223 20.3653 117.828 20.248C117.444 20.1307 116.996 20.072 116.484 20.072C114.767 20.072 113.908 20.9947 113.908 22.84C113.908 24.6853 114.751 25.608 116.436 25.608C116.98 25.608 117.444 25.5493 117.828 25.432C118.223 25.304 118.586 25.144 118.916 24.952V26.488C118.639 26.6693 118.292 26.8293 117.876 26.968C117.46 27.096 116.948 27.16 116.34 27.16Z" fill="white"/>
<path d="M126.269 15.528V27H124.333V15.528H126.269Z" fill="white"/>
<path d="M128.724 15.528H132.596C133.407 15.528 134.159 15.6187 134.852 15.8C135.556 15.9813 136.164 16.28 136.676 16.696C137.199 17.112 137.604 17.6613 137.892 18.344C138.191 19.0267 138.34 19.8693 138.34 20.872C138.34 21.8853 138.191 22.776 137.892 23.544C137.604 24.3013 137.193 24.936 136.66 25.448C136.137 25.96 135.513 26.3493 134.788 26.616C134.073 26.872 133.289 27 132.436 27H128.724V15.528ZM130.66 17.208V25.336H132.5C133.065 25.336 133.577 25.2507 134.036 25.08C134.505 24.9093 134.905 24.648 135.236 24.296C135.577 23.944 135.839 23.496 136.02 22.952C136.212 22.3973 136.308 21.7413 136.308 20.984C136.308 20.2373 136.217 19.624 136.036 19.144C135.855 18.6533 135.599 18.264 135.268 17.976C134.948 17.688 134.564 17.4907 134.116 17.384C133.668 17.2667 133.183 17.208 132.66 17.208H130.66Z" fill="white"/>
</svg>
