<svg width="60" height="60" viewBox="0 0 60 60" fill="none" xmlns="http://www.w3.org/2000/svg">
<circle cx="30" cy="30" r="30" fill="#D9D9D9"/>
<path d="M30.0004 30.8371C26.4625 30.8371 23.583 27.9576 23.583 24.4196C23.583 20.8817 26.4625 18.0022 30.0004 18.0022C33.5384 18.0022 36.4178 20.8817 36.4178 24.4196C36.4178 27.9576 33.5384 30.8371 30.0004 30.8371ZM30.0004 19.6763C27.3888 19.6763 25.2571 21.808 25.2571 24.4196C25.2571 27.0313 27.3888 29.163 30.0004 29.163C32.612 29.163 34.7437 27.0313 34.7437 24.4196C34.7437 21.808 32.612 19.6763 30.0004 19.6763Z" fill="#292D32"/>
<path d="M39.5873 41.9978C39.1297 41.9978 38.7503 41.6183 38.7503 41.1607C38.7503 37.3103 34.8217 34.1853 30.0003 34.1853C25.1788 34.1853 21.2503 37.3103 21.2503 41.1607C21.2503 41.6183 20.8708 41.9978 20.4132 41.9978C19.9556 41.9978 19.5762 41.6183 19.5762 41.1607C19.5762 36.3951 24.2525 32.5112 30.0003 32.5112C35.748 32.5112 40.4244 36.3951 40.4244 41.1607C40.4244 41.6183 40.0449 41.9978 39.5873 41.9978Z" fill="#292D32"/>
</svg>
