<?xml version="1.0" encoding="UTF-8" standalone="no"?>
<!DOCTYPE svg PUBLIC "-//W3C//DTD SVG 1.1//EN" "http://www.w3.org/Graphics/SVG/1.1/DTD/svg11.dtd">
<svg xmlns="http://www.w3.org/2000/svg" version="1.1" viewBox="0.00 0.00 200.00 200.00">
<g stroke-width="2.00" fill="none" stroke-linecap="butt">
<path stroke="#808080" vector-effect="non-scaling-stroke" d="
  M 182.35 200.00
  L 199.72 182.64
  A 0.42 0.42 0.0 0 0 199.71 182.05
  L 171.54 153.88
  A 0.30 0.30 0.0 0 1 171.54 153.45
  L 199.41 125.59
  A 0.35 0.34 -67.3 0 0 199.17 125.00
  L 125.50 125.00
  A 0.51 0.50 0.0 0 0 124.99 125.50
  L 125.00 198.97
  Q 125.00 200.01 125.74 199.27
  L 153.47 171.51
  A 0.25 0.25 0.0 0 1 153.83 171.51
  L 182.30 200.00"
/>
<path stroke="#808080" vector-effect="non-scaling-stroke" d="
  M 0.52 17.67
  A 0.35 0.35 0.0 0 0 0.52 18.17
  L 28.41 46.07
  A 0.35 0.35 0.0 0 1 28.41 46.57
  L 0.60 74.40
  A 0.35 0.35 0.0 0 0 0.84 75.00
  L 74.65 75.00
  A 0.35 0.35 0.0 0 0 75.00 74.65
  L 75.00 0.84
  A 0.35 0.35 0.0 0 0 74.40 0.60
  L 46.57 28.41
  A 0.35 0.35 0.0 0 1 46.07 28.41
  L 18.18 0.51
  A 0.35 0.35 0.0 0 0 17.68 0.51
  L 0.52 17.67"
/>
<path stroke="#808080" vector-effect="non-scaling-stroke" d="
  M 171.55 46.56
  A 0.32 0.32 0.0 0 1 171.55 46.10
  L 199.52 18.15
  A 0.32 0.32 0.0 0 0 199.52 17.69
  L 182.32 0.49
  A 0.32 0.32 0.0 0 0 181.86 0.49
  L 153.89 28.44
  A 0.32 0.32 0.0 0 1 153.43 28.44
  L 125.55 0.55
  A 0.32 0.32 0.0 0 0 125.00 0.77
  L 124.99 74.68
  A 0.32 0.32 0.0 0 0 125.31 75.00
  L 199.23 75.00
  A 0.32 0.32 0.0 0 0 199.45 74.45
  L 171.55 46.56"
/>
<path stroke="#808080" vector-effect="non-scaling-stroke" d="
  M 17.41 199.76
  A 0.34 0.34 0.0 0 0 17.89 199.76
  L 46.09 171.56
  A 0.34 0.34 0.0 0 1 46.57 171.56
  L 74.42 199.42
  A 0.34 0.34 0.0 0 0 75.00 199.18
  L 75.00 125.34
  A 0.34 0.34 0.0 0 0 74.66 125.00
  L 0.82 125.00
  A 0.34 0.34 0.0 0 0 0.58 125.58
  L 28.43 153.42
  A 0.34 0.34 0.0 0 1 28.43 153.90
  L 0.24 182.09
  A 0.34 0.34 0.0 0 0 0.24 182.57
  L 17.41 199.76"
/>
</g>
<path fill="#ffffff" d="
  M 0.00 0.00
  L 200.00 0.00
  L 200.00 200.00
  L 182.35 200.00
  L 199.72 182.64
  A 0.42 0.42 0.0 0 0 199.71 182.05
  L 171.54 153.88
  A 0.30 0.30 0.0 0 1 171.54 153.45
  L 199.41 125.59
  A 0.35 0.34 -67.3 0 0 199.17 125.00
  L 125.50 125.00
  A 0.51 0.50 0.0 0 0 124.99 125.50
  L 125.00 198.97
  Q 125.00 200.01 125.74 199.27
  L 153.47 171.51
  A 0.25 0.25 0.0 0 1 153.83 171.51
  L 182.30 200.00
  L 0.00 200.00
  L 0.00 0.00
  Z
  M 0.52 17.67
  A 0.35 0.35 0.0 0 0 0.52 18.17
  L 28.41 46.07
  A 0.35 0.35 0.0 0 1 28.41 46.57
  L 0.60 74.40
  A 0.35 0.35 0.0 0 0 0.84 75.00
  L 74.65 75.00
  A 0.35 0.35 0.0 0 0 75.00 74.65
  L 75.00 0.84
  A 0.35 0.35 0.0 0 0 74.40 0.60
  L 46.57 28.41
  A 0.35 0.35 0.0 0 1 46.07 28.41
  L 18.18 0.51
  A 0.35 0.35 0.0 0 0 17.68 0.51
  L 0.52 17.67
  Z
  M 171.55 46.56
  A 0.32 0.32 0.0 0 1 171.55 46.10
  L 199.52 18.15
  A 0.32 0.32 0.0 0 0 199.52 17.69
  L 182.32 0.49
  A 0.32 0.32 0.0 0 0 181.86 0.49
  L 153.89 28.44
  A 0.32 0.32 0.0 0 1 153.43 28.44
  L 125.55 0.55
  A 0.32 0.32 0.0 0 0 125.00 0.77
  L 124.99 74.68
  A 0.32 0.32 0.0 0 0 125.31 75.00
  L 199.23 75.00
  A 0.32 0.32 0.0 0 0 199.45 74.45
  L 171.55 46.56
  Z
  M 17.41 199.76
  A 0.34 0.34 0.0 0 0 17.89 199.76
  L 46.09 171.56
  A 0.34 0.34 0.0 0 1 46.57 171.56
  L 74.42 199.42
  A 0.34 0.34 0.0 0 0 75.00 199.18
  L 75.00 125.34
  A 0.34 0.34 0.0 0 0 74.66 125.00
  L 0.82 125.00
  A 0.34 0.34 0.0 0 0 0.58 125.58
  L 28.43 153.42
  A 0.34 0.34 0.0 0 1 28.43 153.90
  L 0.24 182.09
  A 0.34 0.34 0.0 0 0 0.24 182.57
  L 17.41 199.76
  Z"
/>
<path fill="#010101" d="
  M 0.52 17.67
  L 17.68 0.51
  A 0.35 0.35 0.0 0 1 18.18 0.51
  L 46.07 28.41
  A 0.35 0.35 0.0 0 0 46.57 28.41
  L 74.40 0.60
  A 0.35 0.35 0.0 0 1 75.00 0.84
  L 75.00 74.65
  A 0.35 0.35 0.0 0 1 74.65 75.00
  L 0.84 75.00
  A 0.35 0.35 0.0 0 1 0.60 74.40
  L 28.41 46.57
  A 0.35 0.35 0.0 0 0 28.41 46.07
  L 0.52 18.17
  A 0.35 0.35 0.0 0 1 0.52 17.67
  Z"
/>
<path fill="#010101" d="
  M 171.55 46.56
  L 199.45 74.45
  A 0.32 0.32 0.0 0 1 199.23 75.00
  L 125.31 75.00
  A 0.32 0.32 0.0 0 1 124.99 74.68
  L 125.00 0.77
  A 0.32 0.32 0.0 0 1 125.55 0.55
  L 153.43 28.44
  A 0.32 0.32 0.0 0 0 153.89 28.44
  L 181.86 0.49
  A 0.32 0.32 0.0 0 1 182.32 0.49
  L 199.52 17.69
  A 0.32 0.32 0.0 0 1 199.52 18.15
  L 171.55 46.10
  A 0.32 0.32 0.0 0 0 171.55 46.56
  Z"
/>
<path fill="#010101" d="
  M 17.41 199.76
  L 0.24 182.57
  A 0.34 0.34 0.0 0 1 0.24 182.09
  L 28.43 153.90
  A 0.34 0.34 0.0 0 0 28.43 153.42
  L 0.58 125.58
  A 0.34 0.34 0.0 0 1 0.82 125.00
  L 74.66 125.00
  A 0.34 0.34 0.0 0 1 75.00 125.34
  L 75.00 199.18
  A 0.34 0.34 0.0 0 1 74.42 199.42
  L 46.57 171.56
  A 0.34 0.34 0.0 0 0 46.09 171.56
  L 17.89 199.76
  A 0.34 0.34 0.0 0 1 17.41 199.76
  Z"
/>
<path fill="#010101" d="
  M 182.35 200.00
  Q 182.32 200.00 182.30 200.00
  L 153.83 171.51
  A 0.25 0.25 0.0 0 0 153.47 171.51
  L 125.74 199.27
  Q 125.00 200.01 125.00 198.97
  L 124.99 125.50
  A 0.51 0.50 0.0 0 1 125.50 125.00
  L 199.17 125.00
  A 0.35 0.34 -67.3 0 1 199.41 125.59
  L 171.54 153.45
  A 0.30 0.30 0.0 0 0 171.54 153.88
  L 199.71 182.05
  A 0.42 0.42 0.0 0 1 199.72 182.64
  L 182.35 200.00
  Z"
/>
</svg>
