<?xml version="1.0" encoding="UTF-8" standalone="no"?>
<!DOCTYPE svg PUBLIC "-//W3C//DTD SVG 1.1//EN" "http://www.w3.org/Graphics/SVG/1.1/DTD/svg11.dtd">
<svg xmlns="http://www.w3.org/2000/svg" version="1.1" viewBox="0.00 0.00 200.00 200.00">
<path fill="#000000" d="
  M 0.00 0.00
  L 77.70 0.00
  L 44.66 33.11
  A 0.31 0.31 0.0 0 0 44.66 33.55
  L 77.38 66.26
  Q 77.76 66.65 77.38 67.03
  L 67.03 77.38
  Q 66.65 77.76 66.27 77.38
  L 33.70 44.81
  Q 33.32 44.43 32.95 44.81
  L 0.00 77.66
  L 0.00 0.00
  Z"
/>
<path fill="#000000" d="
  M 122.31 0.00
  L 200.00 0.00
  L 200.00 77.70
  L 167.01 44.80
  Q 166.65 44.45 166.30 44.80
  L 133.51 77.60
  A 0.24 0.24 0.0 0 1 133.17 77.60
  L 122.61 67.04
  Q 122.22 66.65 122.61 66.26
  L 155.34 33.54
  A 0.30 0.29 45.7 0 0 155.34 33.13
  L 122.31 0.00
  Z"
/>
<path fill="#000000" d="
  M 77.67 200.00
  L 0.00 200.00
  L 0.00 122.29
  L 33.00 155.21
  A 0.48 0.47 -44.6 0 0 33.67 155.21
  L 66.32 122.55
  Q 66.65 122.22 66.98 122.55
  L 77.44 133.01
  A 0.47 0.47 0.0 0 1 77.44 133.67
  L 44.65 166.46
  A 0.28 0.27 45.7 0 0 44.65 166.85
  L 77.67 200.00
  Z"
/>
<path fill="#000000" d="
  M 200.00 122.32
  L 200.00 200.00
  L 122.28 200.00
  L 155.09 167.11
  Q 155.54 166.65 155.08 166.19
  L 122.68 133.79
  Q 122.23 133.34 122.68 132.89
  L 133.01 122.56
  Q 133.34 122.23 133.67 122.56
  L 166.30 155.19
  A 0.51 0.50 -44.6 0 0 167.01 155.19
  L 200.00 122.32
  Z"
/>
</svg>
