<svg width="14" height="14" viewBox="0 0 14 14" fill="none" xmlns="http://www.w3.org/2000/svg">
<path d="M7.00021 7.41851C5.23124 7.41851 3.7915 5.97878 3.7915 4.2098C3.7915 2.44083 5.23124 1.0011 7.00021 1.0011C8.76918 1.0011 10.2089 2.44083 10.2089 4.2098C10.2089 5.97878 8.76918 7.41851 7.00021 7.41851ZM7.00021 1.83815C5.69441 1.83815 4.62856 2.904 4.62856 4.2098C4.62856 5.51561 5.69441 6.58146 7.00021 6.58146C8.30601 6.58146 9.37186 5.51561 9.37186 4.2098C9.37186 2.904 8.30601 1.83815 7.00021 1.83815Z" fill="#292D32"/>
<path d="M11.7937 12.9989C11.5649 12.9989 11.3751 12.8091 11.3751 12.5803C11.3751 10.6551 9.41085 9.09261 7.00014 9.09261C4.58942 9.09261 2.62514 10.6551 2.62514 12.5803C2.62514 12.8091 2.43541 12.9989 2.20661 12.9989C1.97782 12.9989 1.78809 12.8091 1.78809 12.5803C1.78809 10.1975 4.12625 8.25555 7.00014 8.25555C9.87402 8.25555 12.2122 10.1975 12.2122 12.5803C12.2122 12.8091 12.0225 12.9989 11.7937 12.9989Z" fill="#292D32"/>
</svg>
