<svg xmlns="http://www.w3.org/2000/svg" width="50" height="50" fill="none"><path fill="#292D32" d="M25 26.56a12 12 0 0 1-11.98-11.98A12 12 0 0 1 25 2.6a12 12 0 0 1 11.98 11.98A12 12 0 0 1 25 26.56Zm0-20.83a8.87 8.87 0 0 0-8.85 8.85A8.87 8.87 0 0 0 25 23.44a8.87 8.87 0 0 0 8.85-8.86A8.87 8.87 0 0 0 25 5.73ZM42.9 47.4c-.86 0-1.57-.71-1.57-1.57 0-7.18-7.33-13.02-16.33-13.02-9 0-16.33 5.84-16.33 13.02 0 .86-.71 1.57-1.57 1.57-.85 0-1.56-.71-1.56-1.57 0-8.9 8.73-16.14 19.46-16.14s19.46 7.25 19.46 16.14c0 .86-.71 1.57-1.56 1.57Z"/></svg>
